{"title":"Transviolet - New Bohemia (2016 Pop)","uid":13449486,"size":75943165,"categoryP":"video","categoryS":"music_videos","magnet":"?xt=urn:btih:a9b45540e1475db2cca967db08f7d3be42ab3194&amp;dn=Transviolet+-+New+Bohemia+%282016+Pop%29&amp;tr=udp%3A%2F%2Ftracker.leechers-paradise.org%3A6969&amp;tr=udp%3A%2F%2Fzer0day.ch%3A1337&amp;tr=udp%3A%2F%2Fopen.demonii.com%3A1337&amp;tr=udp%3A%2F%2Ftracker.coppersurfer.tk%3A6969&amp;tr=udp%3A%2F%2Fexodus.desync.com%3A6969","seeders":1,"leechers":0,"uploader":"MeRaDil","files":1,"time":1454783547,"description":"TRANSVIOLET - NEW BOHEMIA\r\n\r\n \nhttp://gifyu.com/images/Transviolet01.png\r\n \nhttp://gifyu.com/images/Transviolet.png\r\n\r\n\r\nGeneral\r\nTransviolet - New Bohemia\r\nFormat                                   : MPEG-4\r\nFormat profile                           : Base Media\r\nCodec ID                                 : isom\r\nFile size                                : 72.4 MiB\r\nDuration                                 : 3mn 41s\r\nOverall bit rate                         : 2 748 Kbps\r\nMusicVid name                            : New Bohemia\r\nPerformer                                : Transviolet\r\nGenre                                    : Pop\r\nContentType                              : Music Video\r\nRecorded date                            : 2016\r\nWriting application                      : Lavf56.32.100 / MeRaDil\r\nCover                                    : Yes\r\nReleasetime                              : USA - february 1 - 2016\r\n\r\nVideo\r\nID                                       : 1\r\nFormat                                   : AVC\r\nFormat/Info                              : Advanced Video Codec\r\nFormat profile                           :   \r\nFormat settings, CABAC                   : Yes\r\nFormat settings, ReFrames                : 3 frames\r\nCodec ID                                 : avc1\r\nCodec ID/Info                            : Advanced Video Coding\r\nDuration                                 : 3mn 40s\r\nBit rate                                 : 2 465 Kbps\r\nWidth                                    : 1 920 pixels\r\nHeight                                   : 1 080 pixels\r\nDisplay aspect ratio                     : 16:9\r\nFrame rate mode                          : Variable\r\nFrame rate                               : 23.976 fps\r\nMinimum frame rate                       : 23.974 fps\r\nMaximum frame rate                       : 23.981 fps\r\nColor space                              : YUV\r\nChroma subsampling                       : 4:2:0\r\nBit depth                                : 8 bits\r\nScan type                                : Progressive\r\nBits/(Pixel*Frame)                       : 0.050\r\nStream size                              : 64.9 MiB (90%)\r\n\r\nAudio\r\nID                                       : 2\r\nFormat                                   : AAC\r\nFormat/Info                              : Advanced Audio Codec\r\nFormat profile                           : LC\r\nCodec ID                                 : 40\r\nDuration                                 : 3mn 41s\r\nBit rate mode                            : Constant\r\nBit rate                                 : 256 Kbps\r\nChannel(s)                               : 2 channels\r\nChannel positions                        : Front: L R\r\nSampling rate                            : 44.1 KHz\r\nCompression mode                         : Lossy\r\nStream size                              : 6.75 MiB (9%)","torrent":{"xt":"urn:btih:a9b45540e1475db2cca967db08f7d3be42ab3194","amp;dn":"Transviolet+-+New+Bohemia+%282016+Pop%29","amp;tr":["udp%3A%2F%2Ftracker.leechers-paradise.org%3A6969","udp%3A%2F%2Fzer0day.ch%3A1337","udp%3A%2F%2Fopen.demonii.com%3A1337","udp%3A%2F%2Ftracker.coppersurfer.tk%3A6969","udp%3A%2F%2Fexodus.desync.com%3A6969"],"infoHash":"a9b45540e1475db2cca967db08f7d3be42ab3194","infoHashBuffer":{"type":"Buffer","data":[169,180,85,64,225,71,93,178,204,169,103,219,8,247,211,190,66,171,49,148]},"announce":[],"urlList":[]}}